<?xml version="1.0" encoding="UTF-8"?>
<!-- Created with Inkscape (http://www.inkscape.org/) -->
<svg width="1024" height="1024" version="1.1" viewBox="0 0 270.9 270.9" xmlns="http://www.w3.org/2000/svg"><rect width="270.9" height="270.9" stroke-width=".2646"/><path d="m185 82.07c-6.63 1.675-12.89 6.62-17.71 9.906-4.814 3.286-1.459 0.653-4.216 1.358-2.758 0.7051-6.885 6.825-7.744 8.079-0.857 1.256-0.2862 1.367-2.631 1.582-2.345 0.215-6.615 3.566-10.9 6.993-4.289 3.427-4.45 2.378-4.098 2.111 0.3521-0.2667-0.1429-1.563-1.605-2.998-1.463-1.435-1.886-1.95-2.627-3.232-0.7404-1.282-0.9394-1.737-0.4766-1.814 0.4617-0.0769 3.236-4.592 3.236-4.592 3.538-8.565 2.391-8.029 2.218-8.876-0.1743-0.85 0.1536-0.7229 3.048-2.836 2.894-2.115 3.263-4.986 4.563-7.448 1.303-2.461 2.445-2.675 3.374-3.149 0.9291-0.473 3.753-1.724 4.919-2.776 1.164-1.053 1.287-2.706 3.473-5.172 2.186-2.463-0.3241-0.8871-3.789 1.114-3.466 2.001-5.379 4.941-9.189 7.331-3.811 2.39-3.712 3.66-4.561 5.039-0.8503 1.377-2.636 5.193-3.748 5.898-1.113 0.7058-2.165 1.187-2.35 2.181-0.1859 0.9932-4.152 9.803-4.223 10.67-0.0703 0.8646-6.445-5.903-9.276-7.622-2.831-1.722-6.608-0.8069-7.008-0.5128-0.4008 0.2948-0.4723-0.4896-0.4723-0.4896s2.775-0.01865 4.479-3.535c1.706-3.517 0.2247-6.082-0.4329-7.221-0.6576-1.139-1.286-1.79-1.286-1.79 0.365-0.4638 0.8096-1.228 0.2622-2.176-0.5486-0.9502-1.777-1.761-2.375-1.922-0.5999-0.1598-1.203-1.205-1.532-1.774-0.3288-0.5695 1.713-0.1034 4.041 0.1993 2.328 0.3028 5.271 1.894 6.068 0.4225 0.7954-1.472 1.229-17.17 1.416-18.16 0.1853-0.9943 1.946-2.77 0.6677-2.791-1.279-0.02089-1.49 1.367-1.49 1.367-1.479 4.019-1.121 14.07-1.358 15.85-0.2372 1.784-0.4926 2.437-1.077 2.521-0.5852 0.08482-8.984-1.525-12.52-2.393-3.313-0.8122-9.289 1.701-10.04 2.028l-0.0045-0.0078s-0.01489 0.01021-0.03672 0.0264c-0.02463 0.01133-0.04122 0.0186-0.04122 0.0186l0.0045 0.0078c-0.6624 0.4915-5.827 4.41-6.779 7.685-1.018 3.5-3.826 11.58-4.189 12.04-0.3661 0.4644-1.059 0.3582-2.723-0.3276-1.662-0.687-10.19-6.02-14.41-6.75 0 0-1.307-0.5108-1.929 0.6074-0.6203 1.117 1.798 0.4807 2.751 0.8174 0.9548 0.3361 14.77 7.81 16.44 7.857 1.672 0.04693 1.767-3.299 2.668-5.466 0.9016-2.167 1.518-4.168 1.847-3.599 0.3288 0.5694 0.9322 1.615 0.7718 2.213-0.1598 0.5999-0.07172 2.068 0.4769 3.018 0.5473 0.948 1.433 0.9446 2.017 0.8604 0 0 0.2474 0.8695 0.9056 2.01 0.6582 1.14 2.138 3.704 6.036 3.986 3.899 0.2815 5.302-2.112 5.302-2.112s0.6431 0.4542 0.1878 0.6538c-0.4546 0.1991-3.136 3.012-3.06 6.325 0.0748 3.31 2.747 12.22 1.963 11.84-0.785-0.3708-10.4-1.341-11.35-1.676-0.9537-0.3367-1.895 0.3336-3.063 0.9443-1.166 0.61-5.365 0.2472-6.982 0.2964-1.62 0.0464-2.67-0.6745-6.645 1.43-3.975 2.104-7.477 2.291-10.94 4.292-3.466 2.001-6.085 3.387-2.859 2.725 3.228-0.6602 4.722 0.0608 6.215-0.4216 1.494-0.4829 3.987-2.302 4.864-2.872 0.8742-0.5681 1.632-1.45 4.412-1.347 2.783 0.103 5.453 1.22 8.732-0.2284 3.277-1.45 3.33-1.796 3.98-1.222 0.6483 0.5748-0.3902 1.299 8.796 2.517 0 0 5.297-0.1461 5.595-0.5066 0.2979-0.3606 0.592 0.0391 1.332 1.321 0.7398 1.281 0.9753 1.906 1.487 3.89 0.5124 1.983 1.387 3.06 1.794 2.889 0.407-0.1716 1.234 0.4911-3.878 2.494-5.112 2.001-10.15 4.023-11.51 5.946-1.358 1.923-1.17 1.373-2.686 1.487-1.516 0.1162-8.878 0.6306-10.87 2.667-1.991 2.037 1.967 0.446-3.284 2.972-5.252 2.526-12.67 5.477-17.43 10.38 0 0-0.7017 1.417 1.033 0.0361 1.735-1.381 8.355-5.266 11.15-6.564 2.796-1.298 8.367-4.26 8.838-3.772 0.471 0.4873 7.324-1.128 12.08-3.748 0 0 0.6636-0.8258 2.249-0.6009 1.586 0.2234 1.558 0.1759 7.046-2.929 5.488-3.105 7.615-4.903 8.673-5.704 1.057-0.7998 2.312-1.588 2.449-1.35 0.137 0.2373 5.498 6.891 8.697 7.387 0 0 0.4624-0.0757 0.2754 0.9181-0.1859 0.9932-0.3271 2.721 0.6506 3.867 0 0 0.6222-0.6757-0.8302 2.948-1.452 3.624-5.332 13.46-4.386 21.46 0 0-0.0925 0.4977-0.5643 1.215-0.4738 0.7163-0.7066 1.735 0.5678 3.723 1.274 1.988 0.5701 1.316 0.2376 2.713-0.3342 1.394-0.1196 16.02 0.5097 16.67 0.6282 0.6497 0.9516-0.1052 0.9951 2.274 0.0458 2.381-1.635 20.63-1.737 23.86-0.1012 3.222-0.6556 8.292 0.152 8.269 0.8097-0.0248 1.2-8.67 1.389-10.43 0.1893-1.754 1.466-22.24 1.76-23.05 0.2966-0.804 1.425-0.8226 1.558-1.469 0.1342-0.6469-1.502-16.86-1.948-17.74-0.4463-0.8828-0.3536-1.379-0.1972-1.659 0.154-0.2786 1.794-1.607 1.102-2.916-0.6929-1.31-0.237-2.712 0.2415-5.393 0.4762-2.682 2.145-10.1 2.331-14.39 0.1846-4.286 1.189-3.092 1.6-4.027 0.4116-0.9336-0.4384-2.406 0.3008-2.769 0.74-0.3622 1.444-0.8969 1.738 1.149 0.2952 2.046 1.084 2.098 2.271 2.615 1.187 0.5185 1.618 1.156 0.9668 1.784-0.6497 0.6282-1.906 4.266 1.31 5.449 0 0 0.6876-0.0171-0.212 1.386-0.8975 1.407-5.035 8.606-4.323 14.34 0.7121 5.729 3.871 11.31 5.666 14.2 1.795 2.89 6.542 9.139 12.59 10.84 6.032 1.696 10.67 3.103 17.57-0.8635 0.0117-7e-3 0.0156-9e-3 0.0234-0.0135 0.0117-7e-3 0.0156-9e-3 0.0234-0.0135 6.889-3.998 7.988-8.716 9.534-14.79 1.55-6.086-1.487-13.32-3.092-16.32-1.605-2.999-4.859-8.525-9.466-12.01-4.606-3.483-12.91-3.5-14.58-3.425-1.665 0.0754-1.307-0.5096-1.307-0.5096 0.5836-3.376-3.195-4.107-4.063-3.859-0.8689 0.2486-1.205-0.4415-1.063-1.729 0.1449-1.286 0.4946-1.995-1.129-3.274-1.624-1.278-0.809-1.621-0.1254-2.08 0.6855-0.4592 1.536 1.013 2.549 1.124 1.016 0.1126 0.484-1.354 4.288 0.6276 3.804 1.983 11.06 4.249 13.62 5.176 2.561 0.927 4.002 1.233 4.791 2.487 0.7873 1.254 2.757 0.4979 3.076 0.5033 0.3206 5e-3 0.7971 0.1725 1.338 1 0.5401 0.8257 13.76 10.35 14.39 10.56 0.6273 0.2073 1.208-0.7605 2.052-0.6153 0.8441 0.1469 19.23 9.286 20.84 10 1.615 0.7144 9.298 4.699 9.722 4.011 0.4263-0.6888-4.242-2.742-7.084-4.267-2.843-1.524-19.49-9.195-21.53-10.42-2.038-1.228-1.222-1.13-1.471-2-0.2474-0.8696-12.81-8.37-14.18-8.777-1.375-0.4096-1.146 0.5351-2.231-1.562-1.085-2.097-2.085-2.404-2.941-2.353-0.8578 0.051-1.335-0.118-1.335-0.118-6.455-4.821-16.91-6.379-20.78-6.931-3.865-0.5542-2.967-0.7559-2.967-0.7559-0.5031-1.419-2.071-2.161-3.024-2.496-0.9548-0.336-0.6562-0.6983-0.6562-0.6983 1.17-3.018-1.912-10.99-2.049-11.22-0.137-0.2373 1.172-0.9296 2.394-1.446 1.221-0.5153 3.843-1.459 9.275-4.659 5.433-3.2 5.461-3.153 6.06-4.638 0.5994-1.485 1.645-1.647 1.645-1.647 4.647-2.809 9.473-7.938 9.287-8.589-0.1872-0.6527 5.164-3.995 7.686-5.768 2.522-1.772 9.197-5.563 11.26-6.374 2.062-0.8104 0.4842-0.9123 0.4842-0.9123z" fill="#fff" stroke-width="1.191"/></svg>
